<svg width="245" height="245" viewBox="0 0 245 245" fill="none" xmlns="http://www.w3.org/2000/svg">
<defs>
<linearGradient id="paint0_linear_dark" x1="122.5" y1="20" x2="122.5" y2="180" gradientUnits="userSpaceOnUse">
<stop stop-color="#FFFFFF" stop-opacity="0.9"/>
<stop offset="0.6" stop-color="#4DFFEA" stop-opacity="0.5"/>
<stop offset="1" stop-color="#00C9A7" stop-opacity="0.2"/>
</linearGradient>

<linearGradient id="paint1_linear_dark" x1="122.5" y1="20" x2="122.5" y2="180" gradientUnits="userSpaceOnUse">
<stop stop-color="#FFFFFF" stop-opacity="0.8"/>
<stop offset="1" stop-color="#4DFFEA" stop-opacity="0.1"/>
</linearGradient>
<linearGradient id="paint2_linear_dark" x1="170" y1="60" x2="130" y2="120" gradientUnits="userSpaceOnUse">
<stop stop-color="#FFFFFF"/>
<stop offset="1" stop-color="#4DFFEA"/>
</linearGradient>
</defs>

<g filter="url(#filter0_d_dark)">
<path d="M122.5 20L191.782 60V140L122.5 180L53.2179 140V60L122.5 20Z" fill="url(#paint0_linear_dark)"/>
<path d="M122.5 20L191.782 60V140L122.5 180L53.2179 140V60L122.5 20Z" stroke="white" stroke-opacity="0.5" stroke-width="1"/>
</g>
<path d="M122.5 20V60M53.2179 60H122.5H191.782M122.5 180V140M53.2179 140H122.5H191.782M122.5 60V140" stroke="#4DFFEA" stroke-width="1"/>
<path opacity="0.6" d="M70 80L122.5 100L175 80M122.5 100V160" stroke="#4DFFEA" stroke-width="1"/>
<g filter="url(#filter1_d_dark)">
<path d="M150 110L175 85L195 105L215 35L185 55L165 35L145 60L120 85V110H150Z" fill="url(#paint2_linear_dark)"/>
</g>

<defs>
<filter id="filter0_d_dark" x="49.2179" y="16" width="146.564" height="172" filterUnits="userSpaceOnUse" color-interpolation-filters="sRGB">
<feFlood flood-opacity="0" result="BackgroundImageFix"/>
<feColorMatrix in="SourceAlpha" type="matrix" values="0 0 0 0 0 0 0 0 0 0 0 0 0 0 0 0 0 0 127 0" result="hardAlpha"/>
<feOffset dy="4"/>
<feGaussianBlur stdDeviation="2"/>
<feComposite in2="hardAlpha" operator="out"/>
<feColorMatrix type="matrix" values="0 0 0 0 0 0 0 0 1 0 0 0 0 1 0 0 0 0 0.1 0"/>
<feBlend mode="normal" in2="BackgroundImageFix" result="effect1_dropShadow_dark"/>
<feBlend mode="normal" in="SourceGraphic" in2="effect1_dropShadow_dark" result="shape"/>
</filter>
<filter id="filter1_d_dark" x="116" y="31" width="103" height="87" filterUnits="userSpaceOnUse" color-interpolation-filters="sRGB">
<feFlood flood-opacity="0" result="BackgroundImageFix"/>
<feColorMatrix in="SourceAlpha" type="matrix" values="0 0 0 0 0 0 0 0 0 0 0 0 0 0 0 0 0 0 127 0" result="hardAlpha"/>
<feOffset dy="4"/>
<feGaussianBlur stdDeviation="2"/>
<feComposite in2="hardAlpha" operator="out"/>
<feColorMatrix type="matrix" values="0 0 0 0 0.301961 0 0 0 1 1 0 0 0 0 0.917647 0 0 0 0.3 0"/>
<feBlend mode="normal" in2="BackgroundImageFix" result="effect1_dropShadow_dark"/>
<feBlend mode="normal" in="SourceGraphic" in2="effect1_dropShadow_dark" result="shape"/>
</filter>
</defs>
</svg>
